<svg width="24" height="24" viewBox="0 0 24 24" fill="none" xmlns="http://www.w3.org/2000/svg">
<path d="M12 8V12C12 12.27 12.11 12.52 12.29 12.71L15.08 15.5C15.267 15.687 15.5206 15.792 15.785 15.792C16.0495 15.792 16.3031 15.687 16.49 15.5C16.677 15.313 16.7821 15.0594 16.7821 14.795C16.7821 14.5306 16.677 14.277 16.49 14.09L13.99 11.59V8C13.99 7.45 13.54 7 12.99 7C12.7266 7.00263 12.4748 7.10915 12.2894 7.2964C12.104 7.48366 12 7.73651 12 8V8ZM13.26 3C12.0565 2.96563 10.8584 3.173 9.73645 3.60984C8.61452 4.04669 7.59161 4.70412 6.72823 5.54326C5.86485 6.38239 5.17856 7.38617 4.70995 8.49521C4.24134 9.60426 3.99994 10.796 4.00003 12H2.21003C1.76003 12 1.54003 12.54 1.86003 12.85L4.65003 15.64C4.85003 15.84 5.16003 15.84 5.36003 15.64L8.16003 12.85C8.46003 12.54 8.24003 12 7.79003 12H6.00003C6.00003 8.11 9.20003 4.94 13.1 5C16.81 5.05 19.94 8.18 20 11.9C20.06 15.81 16.9 19 13 19C11.41 19 9.95003 18.47 8.77003 17.57C8.37003 17.27 7.81003 17.3 7.46003 17.66C7.03003 18.09 7.07003 18.8 7.55003 19.16C9.11548 20.3549 11.0306 21.0015 13 21C18.06 21 22.14 16.83 22 11.75C21.87 7.05 17.95 3.13 13.26 3Z" fill="black"/>
</svg>
