<svg width="16" height="16" viewBox="0 0 16 16" fill="none" xmlns="http://www.w3.org/2000/svg">
<path d="M14.7891 7.89063L8.35317 1.45938C8.30683 1.41294 8.25179 1.37611 8.1912 1.35097C8.1306 1.32584 8.06565 1.3129 8.00005 1.3129C7.93445 1.3129 7.86949 1.32584 7.8089 1.35097C7.74831 1.37611 7.69326 1.41294 7.64692 1.45938L1.21099 7.89063C1.02349 8.07813 0.917236 8.33281 0.917236 8.59844C0.917236 9.15 1.36567 9.59844 1.91724 9.59844H2.59536V14.1875C2.59536 14.4641 2.8188 14.6875 3.09536 14.6875H7.00005V11.1875H8.75005V14.6875H12.9047C13.1813 14.6875 13.4047 14.4641 13.4047 14.1875V9.59844H14.0829C14.3485 9.59844 14.6032 9.49375 14.7907 9.30469C15.1797 8.91406 15.1797 8.28125 14.7891 7.89063V7.89063Z" fill="black"/>
</svg>
