<svg width="24" height="24" viewBox="0 0 24 24" fill="none" xmlns="http://www.w3.org/2000/svg">
<path d="M3 6C2.45 6 2 6.45 2 7V20C2 21.1 2.9 22 4 22H17C17.55 22 18 21.55 18 21C18 20.45 17.55 20 17 20H4V7C4 6.45 3.55 6 3 6Z" fill="black"/>
<path d="M20 2H8C6.9 2 6 2.9 6 4V16C6 17.1 6.9 18 8 18H20C21.1 18 22 17.1 22 16V4C22 2.9 21.1 2 20 2ZM11.5 12.67V7.33C11.5 6.54 12.38 6.06 13.04 6.49L17.19 9.16C17.3303 9.25066 17.4457 9.37503 17.5256 9.52177C17.6055 9.6685 17.6474 9.83292 17.6474 10C17.6474 10.1671 17.6055 10.3315 17.5256 10.4782C17.4457 10.625 17.3303 10.7493 17.19 10.84L13.04 13.51C12.38 13.94 11.5 13.46 11.5 12.67V12.67Z" fill="black"/>
</svg>
