<svg width="20" height="20" viewBox="0 0 20 20" fill="none" xmlns="http://www.w3.org/2000/svg">
<path d="M4 8C3.99945 6.75336 4.38723 5.5375 5.10945 4.52138C5.83167 3.50525 6.85247 2.73931 8.03 2.33C7.9844 2.04431 8.00132 1.75213 8.0796 1.47361C8.15788 1.1951 8.29565 0.936882 8.48341 0.716779C8.67117 0.496676 8.90444 0.319927 9.16714 0.198728C9.42983 0.077528 9.71569 0.0147629 10.005 0.0147629C10.2943 0.0147629 10.5802 0.077528 10.8429 0.198728C11.1056 0.319927 11.3388 0.496676 11.5266 0.716779C11.7143 0.936882 11.8521 1.1951 11.9304 1.47361C12.0087 1.75213 12.0256 2.04431 11.98 2.33C13.1557 2.74099 14.1743 3.50764 14.8946 4.52363C15.615 5.53961 16.0013 6.75457 16 8V14L19 16V17H1V16L4 14V8ZM12 18C12 18.5304 11.7893 19.0391 11.4142 19.4142C11.0391 19.7893 10.5304 20 10 20C9.46957 20 8.96086 19.7893 8.58579 19.4142C8.21071 19.0391 8 18.5304 8 18H12Z" fill="black"/>
</svg>
