<svg width="24" height="24" viewBox="0 0 24 24" fill="none" xmlns="http://www.w3.org/2000/svg">
<path d="M12 14C13.66 14 15 12.66 15 11V5C15 3.34 13.66 2 12 2C10.34 2 9 3.34 9 5V11C9 12.66 10.34 14 12 14Z" fill="black"/>
<path d="M17.91 11C17.42 11 17.01 11.36 16.93 11.85C16.52 14.21 14.47 16 12 16C9.52999 16 7.47999 14.21 7.06999 11.85C7.03472 11.6148 6.91661 11.3999 6.73693 11.2441C6.55725 11.0882 6.32783 11.0017 6.08999 11C5.47999 11 4.99999 11.54 5.08999 12.14C5.57999 15.14 7.97999 17.48 11 17.92V20C11 20.55 11.45 21 12 21C12.55 21 13 20.55 13 20V17.92C16.02 17.48 18.42 15.14 18.91 12.14C19.01 11.54 18.52 11 17.91 11Z" fill="black"/>
</svg>
